<svg width="29" height="23" viewBox="0 0 29 23" fill="none" xmlns="http://www.w3.org/2000/svg">
<path d="M5.15967 22.6293V21.1572C5.15967 20.593 4.81899 20.225 4.23497 20.225C3.94295 20.225 3.62661 20.3231 3.4076 20.642C3.23726 20.3722 2.99392 20.225 2.6289 20.225C2.38556 20.225 2.14222 20.2986 1.94754 20.5684V20.274H1.43652V22.6293H1.94754V21.329C1.94754 20.9119 2.16655 20.7156 2.50723 20.7156C2.84791 20.7156 3.01825 20.9364 3.01825 21.329V22.6293H3.52927V21.329C3.52927 20.9119 3.77261 20.7156 4.08896 20.7156C4.42964 20.7156 4.59998 20.9364 4.59998 21.329V22.6293H5.15967ZM12.7276 20.274H11.9003V19.5626H11.3892V20.274H10.9269V20.7402H11.3892V21.8196C11.3892 22.3594 11.6082 22.6783 12.1923 22.6783C12.4113 22.6783 12.6546 22.6047 12.825 22.5066L12.679 22.065C12.533 22.1631 12.3626 22.1877 12.2409 22.1877C11.9976 22.1877 11.9003 22.0405 11.9003 21.7951V20.7402H12.7276V20.274ZM17.0591 20.225C16.7671 20.225 16.5724 20.3722 16.4508 20.5684V20.274H15.9398V22.6293H16.4508V21.3044C16.4508 20.9119 16.6211 20.6911 16.9375 20.6911C17.0348 20.6911 17.1565 20.7156 17.2538 20.7402L17.3998 20.2495C17.3025 20.225 17.1565 20.225 17.0591 20.225ZM10.5132 20.4703C10.2699 20.2986 9.92919 20.225 9.56417 20.225C8.98015 20.225 8.5908 20.5194 8.5908 20.9855C8.5908 21.378 8.88281 21.5989 9.39383 21.6725L9.63717 21.697C9.90485 21.746 10.0509 21.8196 10.0509 21.9423C10.0509 22.1141 9.85618 22.2367 9.5155 22.2367C9.17482 22.2367 8.90715 22.1141 8.73681 21.9914L8.49346 22.3839C8.76114 22.5802 9.12616 22.6783 9.49117 22.6783C10.1725 22.6783 10.5619 22.3594 10.5619 21.9178C10.5619 21.5007 10.2455 21.2799 9.75884 21.2063L9.5155 21.1818C9.29649 21.1572 9.12616 21.1082 9.12616 20.961C9.12616 20.7892 9.29649 20.6911 9.56417 20.6911C9.85618 20.6911 10.1482 20.8138 10.2942 20.8874L10.5132 20.4703ZM24.0917 20.225C23.7997 20.225 23.6051 20.3722 23.4834 20.5684V20.274H22.9724V22.6293H23.4834V21.3044C23.4834 20.9119 23.6537 20.6911 23.9701 20.6911C24.0674 20.6911 24.1891 20.7156 24.2864 20.7402L24.4324 20.2495C24.3351 20.225 24.1891 20.225 24.0917 20.225ZM17.5701 21.4516C17.5701 22.1631 18.0568 22.6783 18.8112 22.6783C19.1519 22.6783 19.3952 22.6047 19.6386 22.4085L19.3952 21.9914C19.2005 22.1386 19.0059 22.2122 18.7869 22.2122C18.3732 22.2122 18.0812 21.9178 18.0812 21.4516C18.0812 21.01 18.3732 20.7156 18.7869 20.6911C19.0059 20.6911 19.2005 20.7647 19.3952 20.9119L19.6386 20.4948C19.3952 20.2986 19.1519 20.225 18.8112 20.225C18.0568 20.225 17.5701 20.7402 17.5701 21.4516ZM22.291 21.4516V20.274H21.78V20.5684C21.6096 20.3476 21.3663 20.225 21.05 20.225C20.3929 20.225 19.8819 20.7402 19.8819 21.4516C19.8819 22.1631 20.3929 22.6783 21.05 22.6783C21.3906 22.6783 21.634 22.5557 21.78 22.3349V22.6293H22.291V21.4516ZM20.4173 21.4516C20.4173 21.0346 20.6849 20.6911 21.123 20.6911C21.5366 20.6911 21.8286 21.01 21.8286 21.4516C21.8286 21.8687 21.5366 22.2122 21.123 22.2122C20.6849 22.1877 20.4173 21.8687 20.4173 21.4516ZM14.3094 20.225C13.628 20.225 13.1413 20.7156 13.1413 21.4516C13.1413 22.1877 13.628 22.6783 14.3337 22.6783C14.6744 22.6783 15.015 22.5802 15.2827 22.3594L15.0394 21.9914C14.8447 22.1386 14.6014 22.2367 14.358 22.2367C14.0417 22.2367 13.7253 22.0895 13.6523 21.6725H15.3801V21.4762C15.4044 20.7156 14.9664 20.225 14.3094 20.225ZM14.3094 20.6666C14.6257 20.6666 14.8447 20.8628 14.8934 21.2308H13.6767C13.7253 20.9119 13.9443 20.6666 14.3094 20.6666ZM26.9875 21.4516V19.3418H26.4765V20.5684C26.3062 20.3476 26.0628 20.225 25.7465 20.225C25.0894 20.225 24.5784 20.7402 24.5784 21.4516C24.5784 22.1631 25.0894 22.6783 25.7465 22.6783C26.0871 22.6783 26.3305 22.5557 26.4765 22.3349V22.6293H26.9875V21.4516ZM25.1138 21.4516C25.1138 21.0346 25.3815 20.6911 25.8195 20.6911C26.2332 20.6911 26.5252 21.01 26.5252 21.4516C26.5252 21.8687 26.2332 22.2122 25.8195 22.2122C25.3815 22.1877 25.1138 21.8687 25.1138 21.4516ZM8.03112 21.4516V20.274H7.52009V20.5684C7.34975 20.3476 7.10641 20.225 6.79007 20.225C6.13304 20.225 5.62201 20.7402 5.62201 21.4516C5.62201 22.1631 6.13304 22.6783 6.79007 22.6783C7.13074 22.6783 7.37409 22.5557 7.52009 22.3349V22.6293H8.03112V21.4516ZM6.13304 21.4516C6.13304 21.0346 6.40071 20.6911 6.83873 20.6911C7.25241 20.6911 7.54443 21.01 7.54443 21.4516C7.54443 21.8687 7.25241 22.2122 6.83873 22.2122C6.40071 22.1877 6.13304 21.8687 6.13304 21.4516Z" fill="#1D1D1D"/>
<path d="M18.0083 2.38916H10.3429V16.2752H18.0083V2.38916Z" fill="#FF5F00"/>
<path d="M10.8288 9.3326C10.8288 6.51123 12.1428 4.0088 14.1626 2.38958C12.6782 1.21197 10.8044 0.500488 8.76035 0.500488C3.91782 0.500488 0 4.4504 0 9.3326C0 14.2148 3.91782 18.1647 8.76035 18.1647C10.8044 18.1647 12.6782 17.4532 14.1626 16.2756C12.1428 14.6809 10.8288 12.1539 10.8288 9.3326Z" fill="#EB001B"/>
<path d="M28.3502 9.33209C28.3502 14.2143 24.4324 18.1642 19.5898 18.1642C17.5458 18.1642 15.672 17.4527 14.1876 16.2751C16.2317 14.6559 17.5214 12.1534 17.5214 9.33209C17.5214 6.51073 16.2074 4.0083 14.1876 2.38909C15.672 1.21148 17.5458 0.5 19.5898 0.5C24.4324 0.5 28.3502 4.47444 28.3502 9.33209Z" fill="#F79E1B"/>
</svg>
