<svg width="46" height="16" viewBox="0 0 46 16" fill="none" xmlns="http://www.w3.org/2000/svg">
<path d="M23.6231 4.8843C23.5975 6.97372 25.4271 8.13982 26.8054 8.83302C28.2215 9.54442 28.6972 10.0005 28.6918 10.6366C28.681 11.6101 27.5621 12.0398 26.5149 12.0565C24.6879 12.0858 23.6258 11.5474 22.7813 11.1401L22.1232 14.3189C22.9705 14.722 24.5393 15.0735 26.1662 15.0889C29.9849 15.0889 32.4834 13.1431 32.4969 10.126C32.5118 6.29726 27.3662 6.08524 27.4013 4.37379C27.4135 3.85491 27.8932 3.30116 28.9445 3.16029C29.4647 3.08915 30.9011 3.03475 32.5294 3.80888L33.1685 0.733277C32.2929 0.404097 31.1673 0.0888672 29.766 0.0888672C26.1716 0.0888672 23.6434 2.06116 23.6231 4.8843ZM39.31 0.353887C38.6128 0.353887 38.025 0.773727 37.7628 1.41814L32.3078 14.8629H36.1237L36.8832 12.6967H41.5464L41.9869 14.8629H45.3502L42.4153 0.353887H39.31ZM39.8438 4.27336L40.9451 9.72152H37.929L39.8438 4.27336ZM18.9964 0.353887L15.9885 14.8629H19.6247L22.6313 0.353887H18.9964ZM13.617 0.353887L9.83209 10.2293L8.30109 1.83241C8.12139 0.895077 7.41199 0.353887 6.62419 0.353887H0.436687L0.350189 0.775127C1.62039 1.05967 3.06359 1.51857 3.93779 2.00955C4.47289 2.30944 4.62559 2.57167 4.80129 3.28443L7.70109 14.8629H11.5441L17.4357 0.353887H13.617Z" fill="#1B0D55"/>
</svg>
